<svg width="24" height="24" viewBox="0 0 24 24" fill="none" xmlns="http://www.w3.org/2000/svg">
<g clip-path="url(#clip0_152_26)">
<rect width="24" height="24" fill="#0045D0"/>
<path d="M2.1 11.1L0 9C1.53333 7.43333 3.325 6.20833 5.375 5.325C7.425 4.44167 9.63333 4 12 4C12.4 4 12.8 4.0125 13.2 4.0375C13.6 4.0625 14 4.1 14.4 4.15L12.9 7.05C12.7 7.01667 12.5375 7 12.4125 7H12C10.0667 7 8.25417 7.3625 6.5625 8.0875C4.87083 8.8125 3.38333 9.81667 2.1 11.1ZM6.35 15.35L4.25 13.2C5.18333 12.2667 6.25417 11.5292 7.4625 10.9875C8.67083 10.4458 9.98333 10.1333 11.4 10.05L9.8 13.3C9.15 13.5 8.53333 13.7708 7.95 14.1125C7.36667 14.4542 6.83333 14.8667 6.35 15.35ZM11.3 19.85C10.8 19.6667 10.4125 19.3208 10.1375 18.8125C9.8625 18.3042 9.85 17.8 10.1 17.3L16.1 5.1C16.1667 4.96667 16.2625 4.87917 16.3875 4.8375C16.5125 4.79583 16.65 4.8 16.8 4.85C16.9333 4.9 17.0333 4.98333 17.1 5.1C17.1667 5.21667 17.1833 5.35 17.15 5.5L13.9 18.65C13.7667 19.2 13.4333 19.5875 12.9 19.8125C12.3667 20.0375 11.8333 20.05 11.3 19.85ZM17.65 15.35C17.55 15.25 17.4417 15.15 17.325 15.05C17.2083 14.95 17.0833 14.85 16.95 14.75L17.75 11.6C18.1 11.85 18.4458 12.1042 18.7875 12.3625C19.1292 12.6208 19.45 12.9 19.75 13.2L17.65 15.35ZM21.9 11.1C21.4 10.6 20.8625 10.1417 20.2875 9.725C19.7125 9.30833 19.1 8.93333 18.45 8.6L19.15 5.6C20.05 6.03333 20.9083 6.53333 21.725 7.1C22.5417 7.66667 23.3 8.3 24 9L21.9 11.1Z" fill="black"/>
</g>
<defs>
<clipPath id="clip0_152_26">
<rect width="24" height="24" fill="white"/>
</clipPath>
</defs>
</svg>
