<svg width="63" height="70" viewBox="0 0 63 70" fill="none" xmlns="http://www.w3.org/2000/svg">
<path d="M5.4355 31.0796L0 21.8871C3.96878 15.0291 8.60621 9.66679 13.9123 5.80007C19.2184 1.93336 24.9343 0 31.06 0C32.0953 0 33.1307 0.0547177 34.166 0.164153C35.2013 0.273588 36.2367 0.437741 37.272 0.656612L33.3895 13.3511C32.8718 13.2052 32.4512 13.1322 32.1277 13.1322H31.06C26.0559 13.1322 21.3645 14.7191 16.9859 17.8927C12.6073 21.0663 8.75719 25.462 5.4355 31.0796ZM16.4359 49.6836L11.0004 40.2722C13.4162 36.1866 16.1879 32.9583 19.3154 30.5872C22.443 28.2161 25.8402 26.8481 29.507 26.4834L25.3657 40.7099C23.6833 41.5854 22.0871 42.771 20.5773 44.2666C19.0674 45.7622 17.6869 47.5679 16.4359 49.6836ZM29.2482 69.382C27.954 68.5795 26.951 67.0656 26.2392 64.8404C25.5274 62.6153 25.4951 60.4083 26.1422 58.2196L41.6722 4.81516C41.8447 4.2315 42.0928 3.84848 42.4163 3.66608C42.7399 3.48369 43.0957 3.50193 43.484 3.7208C43.8291 3.93967 44.0879 4.30446 44.2605 4.81516C44.4331 5.32585 44.4762 5.90951 44.3899 6.56612L35.9778 64.1291C35.6327 66.5367 34.7699 68.2329 33.3895 69.2179C32.0091 70.2028 30.6286 70.2575 29.2482 69.382ZM45.6841 49.6836C45.4252 49.2459 45.1448 48.8082 44.8429 48.3704C44.5409 47.9327 44.2174 47.4949 43.8722 47.0572L45.9429 33.2683C46.8488 34.3627 47.744 35.4753 48.6283 36.6061C49.5127 37.737 50.3431 38.959 51.1196 40.2722L45.6841 49.6836ZM56.6845 31.0796C55.3903 28.8909 53.9991 26.8846 52.5108 25.0607C51.0225 23.2368 49.4372 21.5952 47.7547 20.1361L49.5666 7.00386C51.8961 8.90074 54.1177 11.0894 56.2315 13.57C58.3453 16.0505 60.3082 18.8229 62.12 21.8871L56.6845 31.0796Z" fill="#0045D0"/>
</svg>
