<svg width="42" height="50" viewBox="0 0 42 50" fill="none" xmlns="http://www.w3.org/2000/svg">
<path d="M3.675 22.1997L0 15.6336C2.68333 10.7351 5.81875 6.90485 9.40625 4.14291C12.9938 1.38097 16.8583 0 21 0C21.7 0 22.4 0.0390841 23.1 0.117252C23.8 0.19542 24.5 0.312672 25.2 0.469009L22.575 9.53651C22.225 9.43229 21.9406 9.38017 21.7219 9.38017H21C17.6167 9.38017 14.4448 10.5136 11.4844 12.7805C8.52396 15.0474 5.92083 18.1871 3.675 22.1997ZM11.1125 35.4883L7.4375 28.7659C9.07083 25.8476 10.9448 23.5416 13.0594 21.848C15.174 20.1543 17.4708 19.1772 19.95 18.9167L17.15 29.0785C16.0125 29.7039 14.9333 30.5507 13.9125 31.619C12.8917 32.6873 11.9583 33.9771 11.1125 35.4883ZM19.775 49.5586C18.9 48.9853 18.2219 47.904 17.7406 46.3146C17.2594 44.7252 17.2375 43.1488 17.675 41.5854L28.175 3.4394C28.2917 3.0225 28.4594 2.74891 28.6781 2.61863C28.8969 2.48835 29.1375 2.50138 29.4 2.65772C29.6333 2.81405 29.8083 3.07461 29.925 3.4394C30.0417 3.80418 30.0708 4.22108 30.0125 4.69009L24.325 45.8065C24.0917 47.5262 23.5083 48.7378 22.575 49.4413C21.6417 50.1448 20.7083 50.1839 19.775 49.5586ZM30.8875 35.4883C30.7125 35.1756 30.5229 34.863 30.3188 34.5503C30.1146 34.2376 29.8958 33.925 29.6625 33.6123L31.0625 23.7631C31.675 24.5448 32.2802 25.3395 32.8781 26.1472C33.476 26.955 34.0375 27.8278 34.5625 28.7659L30.8875 35.4883ZM38.325 22.1997C37.45 20.6364 36.5094 19.2033 35.5031 17.9005C34.4969 16.5977 33.425 15.4252 32.2875 14.3829L33.5125 5.00276C35.0875 6.35767 36.5896 7.92103 38.0187 9.69285C39.4479 11.4647 40.775 13.4449 42 15.6336L38.325 22.1997Z" fill="#0045D0"/>
</svg>
