<svg width="53" height="60" viewBox="0 0 53 60" fill="none" xmlns="http://www.w3.org/2000/svg">
<path d="M23.454 60V53.3333H44.302V29.6667C44.302 23.1667 42.5321 17.6528 38.9923 13.125C35.4525 8.59722 31.1417 6.33333 26.06 6.33333C20.9783 6.33333 16.6675 8.59722 13.1277 13.125C9.58791 17.6528 7.818 23.1667 7.818 29.6667V50H5.212C3.7787 50 2.55171 49.3472 1.53103 48.0417C0.510342 46.7361 0 45.1667 0 43.3333V36.6667C0 35.5 0.228025 34.4028 0.684075 33.375C1.14013 32.3472 1.78077 31.5278 2.606 30.9167L2.80145 26.5C3.14892 22.7222 4.00673 19.2222 5.37488 16C6.74303 12.7778 8.45864 9.97222 10.5217 7.58333C12.5848 5.19444 14.9519 3.33333 17.6231 2C20.2942 0.666667 23.1065 0 26.06 0C29.0135 0 31.8149 0.666667 34.4644 2C37.1138 3.33333 39.4809 5.18056 41.5657 7.54167C43.6505 9.90278 45.3661 12.6944 46.7126 15.9167C48.059 19.1389 48.9277 22.6389 49.3186 26.4167L49.514 30.75C50.3392 31.25 50.9799 32 51.4359 33C51.892 34 52.12 35.0556 52.12 36.1667V43.8333C52.12 44.9444 51.892 46 51.4359 47C50.9799 48 50.3392 48.75 49.514 49.25V53.3333C49.514 55.1667 49.0037 56.7361 47.983 58.0417C46.9623 59.3472 45.7353 60 44.302 60H23.454ZM18.242 36.6667C17.5036 36.6667 16.8847 36.3472 16.3852 35.7083C15.8857 35.0694 15.636 34.2778 15.636 33.3333C15.636 32.3889 15.8857 31.5972 16.3852 30.9583C16.8847 30.3194 17.5036 30 18.242 30C18.9804 30 19.5993 30.3194 20.0988 30.9583C20.5983 31.5972 20.848 32.3889 20.848 33.3333C20.848 34.2778 20.5983 35.0694 20.0988 35.7083C19.5993 36.3472 18.9804 36.6667 18.242 36.6667ZM33.878 36.6667C33.1396 36.6667 32.5207 36.3472 32.0212 35.7083C31.5217 35.0694 31.272 34.2778 31.272 33.3333C31.272 32.3889 31.5217 31.5972 32.0212 30.9583C32.5207 30.3194 33.1396 30 33.878 30C34.6164 30 35.2353 30.3194 35.7348 30.9583C36.2343 31.5972 36.484 32.3889 36.484 33.3333C36.484 34.2778 36.2343 35.0694 35.7348 35.7083C35.2353 36.3472 34.6164 36.6667 33.878 36.6667ZM10.4892 31.5C10.1851 25.6111 11.575 20.5556 14.6588 16.3333C17.7425 12.1111 21.5864 10 26.1903 10C30.0559 10 33.4545 11.5694 36.3863 14.7083C39.318 17.8472 41.0879 21.8611 41.696 26.75C37.7436 26.6944 34.106 25.3333 30.7834 22.6667C27.4607 20 24.909 16.3889 23.1283 11.8333C22.4333 16.2778 20.9674 20.2361 18.7306 23.7083C16.4938 27.1806 13.7467 29.7778 10.4892 31.5Z" fill="#0045D0"/>
</svg>
